<svg xmlns="http://www.w3.org/2000/svg" width="512" height="512" enable-background="new 0 0 512 512" viewBox="0 0 512 512" id="sg"><path fill="#43C2C9" d="M378.791,42.453H132.208L8.917,256l123.291,213.548h246.583L502.083,256L378.791,42.453z M361.471,439.548   H149.529L43.558,256L149.529,72.453h211.942L467.442,256L361.471,439.548z"></path><polygon fill="#062626" points="361.699 72.058 149.301 72.058 43.102 256 149.301 439.942 361.699 439.942 467.898 256"></polygon><path fill="#43C2C9" d="M216.675 274.025c0-7.142-2.521-12.625-7.563-16.45-5.042-3.823-14.118-7.856-27.228-12.101-13.11-4.243-23.489-8.424-31.135-12.543-20.842-11.26-31.261-26.428-31.261-45.505 0-9.915 2.793-18.76 8.382-26.534 5.588-7.772 13.614-13.844 24.076-18.215 10.462-4.369 22.205-6.555 35.232-6.555 13.11 0 24.79 2.375 35.043 7.122 10.252 4.749 18.215 11.451 23.887 20.105 5.672 8.656 8.508 18.488 8.508 29.497h-37.816c0-8.402-2.647-14.938-7.941-19.602-5.294-4.664-12.731-6.996-22.311-6.996-9.246 0-16.431 1.954-21.555 5.862-5.127 3.908-7.689 9.056-7.689 15.441 0 5.968 3.004 10.967 9.013 15 6.007 4.034 14.853 7.815 26.534 11.345 21.512 6.472 37.186 14.496 47.018 24.076s14.748 21.515 14.748 35.8c0 15.883-6.009 28.342-18.025 37.375-12.019 9.034-28.194 13.551-48.53 13.551-14.118 0-26.976-2.585-38.573-7.753-11.597-5.168-20.442-12.247-26.534-21.24-6.094-8.99-9.139-19.412-9.139-31.261h37.942c0 20.253 12.101 30.379 36.304 30.379 8.991 0 16.008-1.828 21.051-5.483C214.154 285.686 216.675 280.58 216.675 274.025zM272.517 252.975c0-20.925 4.979-37.773 14.938-50.547 9.958-12.773 23.383-19.16 40.274-19.16 14.957 0 26.597 5.126 34.917 15.378l1.513-12.857h33.025V317.64c0 11.932-2.71 22.312-8.13 31.136-5.421 8.823-13.047 15.546-22.879 20.168-9.832 4.621-21.347 6.934-34.539 6.934-10.001 0-19.749-1.998-29.244-5.988-9.497-3.992-16.683-9.139-21.555-15.441l16.135-22.186c9.075 10.167 20.084 15.253 33.025 15.253 9.663 0 17.185-2.584 22.563-7.753 5.377-5.168 8.067-12.501 8.067-21.996v-7.311c-8.404 9.497-19.455 14.244-33.151 14.244-16.388 0-29.645-6.407-39.771-19.224-10.127-12.814-15.189-29.812-15.189-50.988V252.975zM308.946 255.566c0 12.41 2.478 22.14 7.438 29.189 4.957 7.049 11.764 10.572 20.421 10.572 11.092 0 19.033-4.177 23.823-12.536v-57.618c-4.874-8.357-12.731-12.537-23.571-12.537-8.741 0-15.611 3.589-20.61 10.764C311.446 230.578 308.946 241.299 308.946 255.566z"></path></svg>